<?xml version="1.0" encoding="UTF-8" standalone="no"?>
<!DOCTYPE svg PUBLIC "-//W3C//DTD SVG 1.1//EN"
 "http://www.w3.org/Graphics/SVG/1.1/DTD/svg11.dtd">
<!-- Generated by graphviz version 2.38.0 (20140413.2041)
 -->
<!-- Title: G Pages: 1 -->
<svg width="127pt" height="132pt"
 viewBox="0.00 0.00 127.00 132.00" xmlns="http://www.w3.org/2000/svg" xmlns:xlink="http://www.w3.org/1999/xlink">
<g id="graph0" class="graph" transform="scale(1 1) rotate(0) translate(4 128)">
<title>G</title>
<polygon fill="white" stroke="none" points="-4,4 -4,-128 123,-128 123,4 -4,4"/>
<g id="clust1" class="cluster"><title>cluster_Global</title>
<path fill="none" stroke="gray" d="M20,-8C20,-8 99,-8 99,-8 105,-8 111,-14 111,-20 111,-20 111,-104 111,-104 111,-110 105,-116 99,-116 99,-116 20,-116 20,-116 14,-116 8,-110 8,-104 8,-104 8,-20 8,-20 8,-14 14,-8 20,-8"/>
<text text-anchor="middle" x="59.5" y="-103.2" font-family="Times,serif" font-size="11.00" fill="gray">Global</text>
</g>
<g id="clust2" class="cluster"><title>cluster_\NsLearning</title>
<path fill="none" stroke="gray" d="M28,-16C28,-16 91,-16 91,-16 97,-16 103,-22 103,-28 103,-28 103,-76 103,-76 103,-82 97,-88 91,-88 91,-88 28,-88 28,-88 22,-88 16,-82 16,-76 16,-76 16,-28 16,-28 16,-22 22,-16 28,-16"/>
<text text-anchor="middle" x="59.5" y="-75.2" font-family="Times,serif" font-size="11.00" fill="gray">NsLearning</text>
</g>
<!-- \\NsLearning\\Learning -->
<g id="node1" class="node"><title>\\NsLearning\\Learning</title>
<polygon fill="none" stroke="black" points="95,-60 24,-60 24,-24 95,-24 95,-60"/>
<text text-anchor="middle" x="59.5" y="-39.2" font-family="Courier,monospace" font-size="11.00">Learning</text>
</g>
</g>
</svg>
