<?xml version="1.0" encoding="UTF-8" standalone="no"?>
<!DOCTYPE svg PUBLIC "-//W3C//DTD SVG 1.1//EN"
 "http://www.w3.org/Graphics/SVG/1.1/DTD/svg11.dtd">
<!-- Generated by graphviz version 2.38.0 (20140413.2041)
 -->
<!-- Title: G Pages: 1 -->
<svg width="446pt" height="232pt"
 viewBox="0.00 0.00 446.18 232.00" xmlns="http://www.w3.org/2000/svg" xmlns:xlink="http://www.w3.org/1999/xlink">
<g id="graph0" class="graph" transform="scale(1 1) rotate(0) translate(4 228)">
<title>G</title>
<polygon fill="white" stroke="none" points="-4,4 -4,-228 442.178,-228 442.178,4 -4,4"/>
<g id="clust1" class="cluster"><title>cluster_Global</title>
<path fill="none" stroke="gray" d="M328.178,-8C328.178,-8 418.178,-8 418.178,-8 424.178,-8 430.178,-14 430.178,-20 430.178,-20 430.178,-204 430.178,-204 430.178,-210 424.178,-216 418.178,-216 418.178,-216 328.178,-216 328.178,-216 322.178,-216 316.178,-210 316.178,-204 316.178,-204 316.178,-20 316.178,-20 316.178,-14 322.178,-8 328.178,-8"/>
<text text-anchor="middle" x="373.178" y="-203.2" font-family="Times,serif" font-size="11.00" fill="gray">Global</text>
</g>
<g id="clust2" class="cluster"><title>cluster_\NsLearning</title>
<path fill="none" stroke="gray" d="M341.678,-116C341.678,-116 404.678,-116 404.678,-116 410.678,-116 416.678,-122 416.678,-128 416.678,-128 416.678,-176 416.678,-176 416.678,-182 410.678,-188 404.678,-188 404.678,-188 341.678,-188 341.678,-188 335.678,-188 329.678,-182 329.678,-176 329.678,-176 329.678,-128 329.678,-128 329.678,-122 335.678,-116 341.678,-116"/>
<text text-anchor="middle" x="373.178" y="-175.2" font-family="Times,serif" font-size="11.00" fill="gray">NsLearning</text>
</g>
<!-- \\NsLearning\\Learning -->
<g id="node1" class="node"><title>\\NsLearning\\Learning</title>
<polygon fill="none" stroke="black" points="408.678,-160 337.678,-160 337.678,-124 408.678,-124 408.678,-160"/>
<text text-anchor="middle" x="373.178" y="-139.2" font-family="Courier,monospace" font-size="11.00">Learning</text>
</g>
<!-- \\VarTest -->
<g id="node2" class="node"><title>\\VarTest</title>
<polygon fill="none" stroke="black" points="405.178,-106 341.178,-106 341.178,-70 405.178,-70 405.178,-106"/>
<text text-anchor="middle" x="373.178" y="-85.2" font-family="Courier,monospace" font-size="11.00">VarTest</text>
</g>
<!-- \\LearningTest -->
<g id="node3" class="node"><title>\\LearningTest</title>
<polygon fill="none" stroke="black" points="422.178,-52 324.178,-52 324.178,-16 422.178,-16 422.178,-52"/>
<text text-anchor="middle" x="373.178" y="-31.2" font-family="Courier,monospace" font-size="11.00">LearningTest</text>
</g>
<!-- \\PHPUnit\\Framework\\TestCase -->
<g id="node4" class="node"><title>\\PHPUnit\\Framework\\TestCase</title>
<ellipse fill="none" stroke="black" cx="126.089" cy="-34" rx="126.178" ry="18"/>
<text text-anchor="middle" x="126.089" y="-30.3" font-family="Times,serif" font-size="14.00" fill="gray">\PHPUnit\Framework\TestCase</text>
</g>
<!-- \\LearningTest&#45;&gt;\\PHPUnit\\Framework\\TestCase -->
<g id="edge1" class="edge"><title>\\LearningTest&#45;&gt;\\PHPUnit\\Framework\\TestCase</title>
<path fill="none" stroke="black" d="M324.048,-34C306.035,-34 284.57,-34 262.542,-34"/>
<polygon fill="none" stroke="black" points="262.392,-30.5001 252.392,-34 262.392,-37.5001 262.392,-30.5001"/>
</g>
</g>
</svg>
