<?xml version="1.0" encoding="UTF-8" standalone="no"?>
<!DOCTYPE svg PUBLIC "-//W3C//DTD SVG 1.1//EN"
 "http://www.w3.org/Graphics/SVG/1.1/DTD/svg11.dtd">
<!-- Generated by graphviz version 2.38.0 (20140413.2041)
 -->
<!-- Title: G Pages: 1 -->
<svg width="446pt" height="286pt"
 viewBox="0.00 0.00 446.18 286.00" xmlns="http://www.w3.org/2000/svg" xmlns:xlink="http://www.w3.org/1999/xlink">
<g id="graph0" class="graph" transform="scale(1 1) rotate(0) translate(4 282)">
<title>G</title>
<polygon fill="white" stroke="none" points="-4,4 -4,-282 442.178,-282 442.178,4 -4,4"/>
<g id="clust1" class="cluster"><title>cluster_Global</title>
<path fill="none" stroke="gray" d="M328.178,-8C328.178,-8 418.178,-8 418.178,-8 424.178,-8 430.178,-14 430.178,-20 430.178,-20 430.178,-258 430.178,-258 430.178,-264 424.178,-270 418.178,-270 418.178,-270 328.178,-270 328.178,-270 322.178,-270 316.178,-264 316.178,-258 316.178,-258 316.178,-20 316.178,-20 316.178,-14 322.178,-8 328.178,-8"/>
<text text-anchor="middle" x="373.178" y="-257.2" font-family="Times,serif" font-size="11.00" fill="gray">Global</text>
</g>
<g id="clust2" class="cluster"><title>cluster_\NsLearning</title>
<path fill="none" stroke="gray" d="M341.678,-170C341.678,-170 404.678,-170 404.678,-170 410.678,-170 416.678,-176 416.678,-182 416.678,-182 416.678,-230 416.678,-230 416.678,-236 410.678,-242 404.678,-242 404.678,-242 341.678,-242 341.678,-242 335.678,-242 329.678,-236 329.678,-230 329.678,-230 329.678,-182 329.678,-182 329.678,-176 335.678,-170 341.678,-170"/>
<text text-anchor="middle" x="373.178" y="-229.2" font-family="Times,serif" font-size="11.00" fill="gray">NsLearning</text>
</g>
<!-- \\NsLearning\\Learning -->
<g id="node1" class="node"><title>\\NsLearning\\Learning</title>
<polygon fill="none" stroke="black" points="408.678,-214 337.678,-214 337.678,-178 408.678,-178 408.678,-214"/>
<text text-anchor="middle" x="373.178" y="-193.2" font-family="Courier,monospace" font-size="11.00">Learning</text>
</g>
<!-- \\arrays1Test -->
<g id="node2" class="node"><title>\\arrays1Test</title>
<polygon fill="none" stroke="black" points="418.678,-160 327.678,-160 327.678,-124 418.678,-124 418.678,-160"/>
<text text-anchor="middle" x="373.178" y="-139.2" font-family="Courier,monospace" font-size="11.00">arrays1Test</text>
</g>
<!-- \\PHPUnit\\Framework\\TestCase -->
<g id="node5" class="node"><title>\\PHPUnit\\Framework\\TestCase</title>
<ellipse fill="none" stroke="black" cx="126.089" cy="-88" rx="126.178" ry="18"/>
<text text-anchor="middle" x="126.089" y="-84.3" font-family="Times,serif" font-size="14.00" fill="gray">\PHPUnit\Framework\TestCase</text>
</g>
<!-- \\arrays1Test&#45;&gt;\\PHPUnit\\Framework\\TestCase -->
<g id="edge1" class="edge"><title>\\arrays1Test&#45;&gt;\\PHPUnit\\Framework\\TestCase</title>
<path fill="none" stroke="black" d="M327.51,-132.158C293.453,-124.655 245.694,-114.132 205.34,-105.241"/>
<polygon fill="none" stroke="black" points="206.04,-101.811 195.521,-103.077 204.533,-108.647 206.04,-101.811"/>
</g>
<!-- \\VarTest -->
<g id="node3" class="node"><title>\\VarTest</title>
<polygon fill="none" stroke="black" points="405.178,-106 341.178,-106 341.178,-70 405.178,-70 405.178,-106"/>
<text text-anchor="middle" x="373.178" y="-85.2" font-family="Courier,monospace" font-size="11.00">VarTest</text>
</g>
<!-- \\LearningTest -->
<g id="node4" class="node"><title>\\LearningTest</title>
<polygon fill="none" stroke="black" points="422.178,-52 324.178,-52 324.178,-16 422.178,-16 422.178,-52"/>
<text text-anchor="middle" x="373.178" y="-31.2" font-family="Courier,monospace" font-size="11.00">LearningTest</text>
</g>
<!-- \\LearningTest&#45;&gt;\\PHPUnit\\Framework\\TestCase -->
<g id="edge2" class="edge"><title>\\LearningTest&#45;&gt;\\PHPUnit\\Framework\\TestCase</title>
<path fill="none" stroke="black" d="M324.048,-44.6042C290.392,-52.0197 244.683,-62.0907 205.771,-70.6641"/>
<polygon fill="none" stroke="black" points="204.528,-67.3539 195.516,-72.9236 206.034,-74.1899 204.528,-67.3539"/>
</g>
</g>
</svg>
